PathFileType	4	(X/Y/Z)	OpenSim_Sub03_CSBaseline_Gyro.trc
DataRate	CameraRate	NumFrames	NumMarkers	Units	OrigDataRate	OrigDataStartFrame	OrigNumFrames
100	100	37	8	m	100	5806	9288
Frame#	Time	torso_imu_offset_imu	pelvis_imu_offset_imu	tibia_r_imu_offset_imu	femur_r_imu_offset_imu	tibia_l_imu_offset_imu	femur_l_imu_offset_imu	toes_r_imu_offset_imu	toes_l_imu_offset_imu
				X1	Y1	Z1	X2	Y2	Z2	X3	Y3	Z3	X4	Y4	Z4	X5	Y5	Z5	X6	Y6	Z6	X7	Y7	Z7	X8		Y8	Z8	

5806	58.05000000	0.27244718	0.17875141	0.10076139	0.14680295	-0.21581200	-0.39791531	-0.95849933	-0.26628405	-1.73088177	-0.07691111	0.66361996	1.06343178	0.55009433	-0.26430593	1.14418220	0.05615570	-1.10399411	0.34075284	0.53686957	-4.24733526	-1.91694982	-0.79164830	0.22827598	0.53918373
5807	58.06000000	0.26856984	0.16005489	0.09795934	0.10041374	-0.16818261	-0.38002407	-1.04545416	-0.37004129	-1.75668655	-0.11719884	0.70093673	1.23760427	0.46989672	-0.53252394	1.17961672	0.05600764	-1.21090044	0.37905830	0.40298834	-4.45309995	-2.06073488	-0.53727487	0.18390889	0.40923411
5808	58.07000000	0.24209277	0.13143815	0.08056274	0.04126227	-0.11711839	-0.33648553	-1.15398565	-0.47633099	-1.80384534	-0.16736464	0.76943308	1.43081864	-0.13051660	-0.66077997	1.13690030	-0.07892002	-0.97850951	0.52213136	0.08471465	-4.64297946	-2.17267115	-0.44121233	0.15006641	0.30678722
5809	58.08000000	0.20434095	0.10721426	0.08221119	-0.01609039	-0.09007007	-0.29903493	-1.25127610	-0.55811164	-1.86700981	-0.22633132	0.80249684	1.57061259	-0.50988630	-0.47946088	1.02820361	-0.13880114	-0.64074764	0.70558226	-0.24750909	-4.66605650	-2.26809051	-0.39749580	0.10847649	0.23636432
5810	58.09000000	0.14801688	0.07647212	0.09081610	-0.06898873	-0.03692151	-0.25893296	-1.31019551	-0.64346005	-1.89768691	-0.30666396	0.79594113	1.70401883	-0.81715109	-0.47507910	0.86153687	0.15120074	-0.39268852	0.80993367	-0.57300696	-4.70864018	-2.30825305	-0.35060520	0.07134676	0.19837402
5811	58.10000000	0.08608284	0.04707833	0.10681980	-0.12115485	0.04106906	-0.21788756	-1.39855881	-0.74402699	-1.90775918	-0.38083400	0.74689277	1.82798301	-1.01211650	-0.53032602	0.82093507	0.58180709	-0.29395183	0.83679338	-1.02111281	-4.61162265	-2.38814726	-0.28208701	0.03659372	0.15928545
5812	58.11000000	0.02350623	0.02149833	0.12305357	-0.15878856	0.10428162	-0.19962797	-1.48492796	-0.77467082	-1.93883633	-0.40909325	0.68374716	1.91548839	-0.85842152	-0.46169233	0.83648980	0.77361946	-0.29228175	0.84304823	-1.07215229	-4.39763990	-2.47127416	-0.19080764	0.06454251	0.10451874
5813	58.12000000	-0.04020942	-0.00744153	0.12648824	-0.18255600	0.13795530	-0.19837149	-1.52472755	-0.78714821	-1.94337644	-0.38337754	0.60153011	1.93839651	-0.44150600	-0.46868123	0.86698407	0.64524142	-0.29508238	0.84507638	-1.39711229	-4.34724119	-2.57298200	-0.11348663	0.05823081	0.07350616
5814	58.13000000	-0.10767520	-0.04683994	0.10796102	-0.17763337	0.15234180	-0.19938572	-1.55792780	-0.76099948	-1.83400873	-0.35452743	0.54614026	1.94150119	0.06403369	-0.48515919	0.85842391	0.41105496	-0.27359114	0.82375909	-1.72296737	-4.27008963	-2.53560488	-0.10062524	0.02875255	0.09438016
5815	58.14000000	-0.16180156	-0.07919467	0.08906918	-0.14384617	0.15991461	-0.17789028	-1.48545623	-0.74249489	-1.66566079	-0.32360449	0.48927097	1.91331012	0.33214329	-0.40077780	0.79113384	0.21386724	-0.22998406	0.82103980	-1.92783833	-4.10404304	-2.71160611	-0.10483336	0.03168436	0.09990185
5816	58.15000000	-0.20746494	-0.11327087	0.05554026	-0.09197838	0.15889510	-0.15338549	-1.32336867	-0.82193060	-1.44471017	-0.28979772	0.41939317	1.84855491	0.18383761	-0.39257525	0.73756836	0.06030305	-0.19206765	0.85036687	-1.87597180	-3.79449130	-2.97453366	-0.08178808	0.01885676	0.09130873
5817	58.16000000	-0.24486493	-0.15532666	0.04158237	-0.02961118	0.14027406	-0.10038287	-1.00366663	-0.87768398	-1.16312463	-0.25133390	0.35713633	1.81473159	-0.03909958	-0.39950232	0.66910999	-0.11798690	-0.21630426	0.86323903	-1.49556872	-3.05991973	-2.96671585	-0.06361260	-0.01255939	0.08009506
5818	58.17000000	-0.27376867	-0.18138840	0.01976586	0.02426989	0.10119381	-0.03660061	-0.57296041	-0.81138225	-0.92703801	-0.16095866	0.29992719	1.74834787	-0.03677997	-0.34835837	0.62801100	-0.30880794	-0.36176105	0.84263652	-1.83637623	-1.69803185	-2.21115555	-0.05336985	-0.04774238	0.06685066
5819	58.18000000	-0.30887277	-0.19441685	0.01355058	0.07044093	0.06322940	0.02362842	-0.20875530	-0.65168359	-0.83412127	-0.00560468	0.22998107	1.65885633	0.02452279	-0.28507640	0.64323806	-0.40707592	-0.49611770	0.80557616	-2.20711599	0.68450875	-0.73236620	-0.01779013	-0.06876957	0.05433049
5820	58.19000000	-0.33165587	-0.20806355	0.00642531	0.11103421	0.03871912	0.08890371	-0.16341734	-0.53652689	-0.96865638	0.22039060	0.15087135	1.58193361	0.07195490	-0.24048159	0.67261653	-0.38527330	-0.49905941	0.78804423	-1.64349110	2.27755262	0.63964566	-0.02123245	-0.09381081	0.05811498
5821	58.20000000	-0.33223260	-0.22275261	0.00617751	0.12436236	0.02851763	0.13211750	-0.89738005	-0.53790181	-1.03886961	0.41870792	0.07291324	1.50326856	0.08402942	-0.21083065	0.66358347	-0.23833407	-0.42675596	0.76053362	-0.59712087	2.65412038	1.43466905	-0.01168281	-0.12691756	0.06416372
5822	58.21000000	-0.32363530	-0.21533872	0.00966756	0.12568859	0.03326943	0.18808764	-1.58731486	-0.50789591	-0.72511408	0.53921178	0.00998044	1.43487765	0.09300558	-0.21122513	0.65589732	0.00055846	-0.37360993	0.71616706	0.22198649	2.10586802	1.71450847	-0.00181961	-0.15786407	0.08090161
5823	58.22000000	-0.30941236	-0.18662098	0.01659892	0.11003432	0.06016549	0.23689314	-1.49629364	-0.52505261	-0.29616694	0.62808962	-0.03250211	1.44350164	0.16293113	-0.20038687	0.67587120	0.23661642	-0.33861394	0.68252895	0.31803285	1.76702592	1.96697530	-0.02701091	-0.18629614	0.09565650
5824	58.23000000	-0.29086747	-0.14488642	0.02904268	0.09427302	0.09006284	0.28888673	-0.75058085	-0.41017813	0.18408848	0.72665552	-0.07454735	1.47246183	0.28296183	-0.18949578	0.73553000	0.40680563	-0.31520294	0.63220514	0.20977765	1.63513158	2.11246218	-0.01451788	-0.22846540	0.10984063
5825	58.24000000	-0.26550996	-0.11083110	0.03809616	0.10310364	0.11180161	0.34206128	0.71929559	-0.24365092	0.50364344	0.78649296	-0.14083916	1.41529786	0.35472258	-0.17906129	0.76458451	0.50805454	-0.28192573	0.56489504	0.02081862	1.85926583	2.24402439	-0.02204512	-0.24257849	0.13136698
5826	58.25000000	-0.25322289	-0.09341614	0.04229101	0.12652707	0.11770485	0.36736127	1.83367642	0.01866376	0.65375247	0.84426940	-0.19357687	1.34941337	0.35592661	-0.18569733	0.76632338	0.54953059	-0.23699841	0.50950347	-0.11505003	2.35296865	2.37285307	-0.04465334	-0.26491121	0.15800667
5827	58.26000000	-0.24142451	-0.09641455	0.04616450	0.14767403	0.12783612	0.37010422	2.37548883	0.22682526	0.81406991	0.92091372	-0.22475331	1.33565643	0.26515326	-0.17736807	0.74633492	0.54985393	-0.18635405	0.45698484	-0.19203674	2.93696063	2.48116409	-0.06812197	-0.26729786	0.16817780
5828	58.27000000	-0.22487889	-0.11271788	0.06360028	0.15267981	0.13154546	0.34324322	2.20476670	0.34621110	1.19509066	1.01625717	-0.25150724	1.31823025	0.15516046	-0.17770928	0.76283612	0.55951284	-0.16158478	0.42130639	-0.24524314	3.37895858	2.54561534	-0.05611515	-0.27711839	0.15060246
5829	58.28000000	-0.20222350	-0.13580390	0.08249937	0.13887483	0.12639141	0.30667007	1.58133015	0.29499698	1.51660335	1.11709929	-0.26868472	1.27554049	0.14466712	-0.15288720	0.78768127	0.55133222	-0.14836258	0.39500475	-0.41990583	3.60757497	2.51128938	-0.02323764	-0.27469083	0.14563405
5830	58.29000000	-0.17422198	-0.16145623	0.09857757	0.11713834	0.12296662	0.27869822	0.88980297	0.28203950	1.74023663	1.18124446	-0.29549117	1.20662135	0.16188786	-0.14165555	0.77931271	0.50330806	-0.13013298	0.39604594	-0.65100151	3.67102330	2.40295395	-0.02782187	-0.27912410	0.15160180
5831	58.30000000	-0.15248761	-0.19130713	0.11469169	0.08602059	0.12208606	0.23733226	0.41566220	0.43717439	1.98508000	1.24396247	-0.31493311	1.13140568	0.18232584	-0.14278953	0.75065237	0.40716873	-0.11636638	0.41401373	-0.89472849	3.69251847	2.23957560	-0.04839909	-0.30151304	0.16138224
5832	58.31000000	-0.13309178	-0.21187253	0.12101111	0.06512630	0.12548301	0.23049254	0.05837689	0.56277326	2.27460830	1.31134022	-0.31023863	1.00703807	0.18212168	-0.13257117	0.73504927	0.28624610	-0.11688675	0.43521239	-1.00351593	3.74279146	2.01548854	-0.04375190	-0.30145941	0.17035628
5833	58.32000000	-0.11487967	-0.22958812	0.12062794	0.05150644	0.13586481	0.20326823	-0.10943275	0.60685079	2.49784572	1.38108698	-0.28692225	0.93947930	0.17675416	-0.13869260	0.74424617	0.17489878	-0.11398995	0.46183128	-0.97436447	3.82494093	1.76921335	-0.04576612	-0.30134526	0.18267333
5834	58.33000000	-0.10617269	-0.24164798	0.12316065	0.04790950	0.14803092	0.17548399	-0.21502015	0.61327044	2.67407527	1.39106285	-0.21889597	0.93041861	0.19400809	-0.11972379	0.72031707	0.12361028	-0.11077011	0.47126823	-0.96869217	3.93507004	1.56675375	-0.03169980	-0.29956063	0.18251254
5835	58.34000000	-0.09358931	-0.24682542	0.12668439	0.06628841	0.15923291	0.16736094	-0.43261357	0.57927529	2.88977037	1.28284590	-0.16264078	0.86611552	0.21409323	-0.11278412	0.69488050	0.11095833	-0.12741496	0.47170566	-1.12352863	4.11049721	1.45768317	-0.03898437	-0.30645845	0.18239970
5836	58.35000000	-0.08341331	-0.24744671	0.12274252	0.07635659	0.16466103	0.14072765	-0.60628289	0.58651777	3.05432634	1.10694726	-0.13840808	0.78306096	0.23916811	-0.10048299	0.67149653	0.09584970	-0.15042088	0.48990461	-1.37941397	4.24081149	1.39594448	-0.01746755	-0.30995993	0.17062676
5837	58.36000000	-0.07330605	-0.24525542	0.11689550	0.09812413	0.17004204	0.11931715	-0.68091030	0.60260853	3.19171711	0.88772339	-0.11948961	0.68460826	0.23592027	-0.09385813	0.67123564	0.07892343	-0.15865777	0.51171410	-1.55599029	4.24514143	1.33227626	0.00257197	-0.30790317	0.14375986
5838	58.37000000	-0.05878726	-0.24329578	0.11614973	0.12788698	0.17959779	0.08639018	-0.68007858	0.56646550	3.40430586	0.69104382	-0.11093712	0.57932259	0.22379886	-0.09459446	0.66177578	0.09782392	-0.14554785	0.52552019	-1.56548415	4.17657263	1.27647973	0.00708874	-0.29252867	0.11947708
5839	58.38000000	-0.04746507	-0.24060452	0.11619966	0.16297051	0.19174438	0.04361458	-0.52739395	0.56489585	3.62595310	0.49905094	-0.09153750	0.48699828	0.20172706	-0.09717575	0.63818280	0.14420875	-0.12508842	0.53828330	-1.43463925	4.10602265	1.29303947	0.03312246	-0.29908338	0.10144460
5840	58.39000000	-0.03323595	-0.23364272	0.12031980	0.19684277	0.21511267	0.02204298	-0.33449261	0.51545915	3.78435720	0.30071949	-0.07247515	0.36458017	0.21055858	-0.08259414	0.61348104	0.16005874	-0.09804191	0.56156775	-1.31882309	4.07230789	1.47411133	0.02876343	-0.30335897	0.09263131
5841	58.40000000	-0.01388410	-0.23251203	0.11896115	0.22665866	0.23620910	-0.00944705	0.05785872	0.51856082	3.90269709	0.11687549	-0.06405463	0.25783136	0.18050321	-0.07923103	0.61814465	0.16256570	-0.07333453	0.58519144	-1.24706572	4.02392599	1.82712558	0.03323386	-0.30996292	0.09029871
5842	58.41000000	0.01266836	-0.23315360	0.11940014	0.26452570	0.26067365	-0.03659975	0.43337110	0.55550983	3.97262102	-0.04832011	-0.06822552	0.14653084	0.20885336	-0.05885229	0.61494154	0.18169575	-0.05899565	0.59516418	-1.14132094	3.87184398	2.21260468	0.04310976	-0.31677413	0.08802424
